<svg width="39" height="17" viewBox="0 0 39 17" fill="none" xmlns="http://www.w3.org/2000/svg">
<path d="M7.13843 2.18358C6.68156 2.72562 5.95079 3.15207 5.21985 3.09113C5.12858 2.36019 5.48791 1.58061 5.90817 1.10552C6.36495 0.551361 7.16284 0.155424 7.81454 0.125C7.88759 0.880178 7.58912 1.62934 7.13843 2.18358ZM7.80234 3.23105C6.74258 3.1702 5.83511 3.83411 5.33562 3.83411C4.824 3.83411 4.05654 3.26156 3.2161 3.27978C2.12592 3.29808 1.11489 3.91326 0.560651 4.89378C-0.584361 6.86117 0.262173 9.76637 1.37066 11.3683C1.9127 12.16 2.5583 13.0312 3.41111 13.0006C4.2212 12.97 4.53781 12.4767 5.51231 12.4767C6.49292 12.4767 6.77928 13.0006 7.63191 12.9882C8.51497 12.9699 9.06922 12.1965 9.61134 11.4047C10.2264 10.5032 10.4823 9.63239 10.4945 9.58375C10.4763 9.56519 8.78904 8.91975 8.77082 6.97075C8.7526 5.33845 10.1047 4.56496 10.1656 4.51623C9.40413 3.38334 8.2165 3.26156 7.80234 3.23105ZM13.9173 1.02628V12.8971H15.7628V8.8406H18.3147C20.6475 8.8406 22.2798 7.2388 22.2798 4.92437C22.2798 2.60994 20.6719 1.02628 18.3758 1.02628H13.9173ZM15.7628 2.57943H17.8885C19.4903 2.57943 20.404 3.43215 20.404 4.93047C20.404 6.42871 19.4904 7.29364 17.8824 7.29364H15.7629L15.7628 2.57943ZM25.6419 12.9883C26.7992 12.9883 27.871 12.4038 28.3584 11.4718H28.3949V12.897H30.1003V6.98897C30.1003 5.27751 28.7298 4.16911 26.6225 4.16911C24.6673 4.16911 23.2178 5.28972 23.1629 6.82456H24.8257C24.9657 6.09362 25.6419 5.61252 26.5678 5.61252C27.6945 5.61252 28.3279 6.13625 28.3279 7.10474V7.76254L26.0256 7.90254C23.8878 8.03042 22.7306 8.90738 22.7306 10.4302C22.7366 11.9652 23.9304 12.9883 25.6419 12.9883ZM26.1413 11.5815C25.1607 11.5815 24.5333 11.1065 24.5333 10.3876C24.5333 9.63841 25.1363 9.20611 26.2874 9.13899L28.3338 9.01103V9.68112C28.3339 10.7897 27.39 11.5815 26.1413 11.5815ZM32.3842 16.125C34.1808 16.125 35.0275 15.4369 35.7644 13.3598L38.9986 4.28479H37.1227L34.9545 11.2951H34.918L32.7495 4.28479H30.8249L33.9434 12.9274L33.7728 13.4512C33.4925 14.3404 33.0358 14.6877 32.2196 14.6877C32.0735 14.6877 31.7934 14.6695 31.6776 14.6571V16.0825C31.7873 16.1069 32.2441 16.125 32.3842 16.125Z" fill="white"/>
</svg>
