<svg width="56" height="70" viewBox="0 0 56 70" fill="none" xmlns="http://www.w3.org/2000/svg">
<g clip-path="url(#clip0_1_2063)">
<g filter="url(#filter0_d_1_2063)">
<path d="M49.5217 15.1714C49.9763 15.0379 50.4538 14.9945 50.926 15.0435C51.3983 15.0925 51.8559 15.2331 52.2717 15.4565C52.6554 15.6627 52.9958 15.9362 53.2786 16.2612L53.3293 16.3247C53.6209 16.6907 53.8319 17.1111 53.9514 17.5591C54.0709 18.0072 54.0963 18.4744 54.0256 18.9321C53.9549 19.3898 53.7896 19.8293 53.5393 20.2231C53.2889 20.6171 52.9586 20.9577 52.5676 21.2222L52.5032 21.2661L52.4417 21.3149L45.3997 26.9604C43.883 28.1444 42.2426 29.1652 40.5071 30.0063L39.4211 30.5337V65.52C39.4185 66.1599 39.1609 66.7771 38.6975 67.2358C38.2322 67.6964 37.5965 67.959 36.9299 67.9604H34.8499C34.1821 67.9608 33.5451 67.6995 33.0784 67.2388C32.6706 66.8362 32.4214 66.3109 32.3645 65.7554L32.3528 65.5151V48.3042H24.0852V65.52C24.0826 66.16 23.825 66.7771 23.3616 67.2358C22.8963 67.6963 22.2614 67.9589 21.595 67.9604H19.5305C18.8629 67.9594 18.2267 67.6964 17.761 67.2349C17.2975 66.7755 17.0402 66.1574 17.0383 65.5171L17.1624 31.7388L17.1672 30.5259L16.0764 29.9976C14.5577 29.2612 13.112 28.3873 11.7581 27.3872L11.1838 26.9507L4.14185 21.3052H4.14087C3.77466 21.0118 3.47177 20.6507 3.24829 20.2437C3.02487 19.8367 2.88511 19.391 2.83618 18.9321C2.7873 18.4731 2.83064 18.0081 2.96313 17.5649C3.09564 17.122 3.31534 16.7082 3.6106 16.3472C3.90604 15.9859 4.27146 15.6838 4.68677 15.4604C5.10203 15.2372 5.55885 15.0966 6.03052 15.0474C6.50205 14.9982 6.97872 15.0414 7.43286 15.1743C7.83035 15.2907 8.20394 15.4739 8.53638 15.7144L8.67603 15.8218L15.7366 21.4858L15.7532 21.4995L15.7698 21.5122C19.4085 24.3025 23.8788 25.8149 28.4768 25.8149C33.0746 25.8149 37.5443 24.3024 41.1829 21.5122L41.1995 21.4995L41.2161 21.4858L48.2786 15.8208V15.8198C48.6449 15.5258 49.0672 15.3049 49.5217 15.1714ZM28.4729 1.92432H28.4768C30.6061 1.92436 32.6442 2.76152 34.1438 4.24561C35.6426 5.72897 36.4806 7.73663 36.4807 9.82568C36.4807 11.9149 35.6427 13.9233 34.1438 15.4067C32.6442 16.8908 30.606 17.728 28.4768 17.728H28.4739C26.3289 17.7305 24.2734 16.8946 22.7532 15.4087C21.2385 13.9282 20.3762 11.9221 20.3469 9.82471C20.3745 7.72756 21.2358 5.72105 22.7502 4.24072C24.2707 2.75466 26.3276 1.91972 28.4729 1.92432Z" stroke="white" stroke-width="3.85333" shape-rendering="crispEdges"/>
</g>
</g>
<defs>
<filter id="filter0_d_1_2063" x="-8.10122" y="-8.99355" width="73.0839" height="87.8722" filterUnits="userSpaceOnUse" color-interpolation-filters="sRGB">
<feFlood flood-opacity="0" result="BackgroundImageFix"/>
<feColorMatrix in="SourceAlpha" type="matrix" values="0 0 0 0 0 0 0 0 0 0 0 0 0 0 0 0 0 0 127 0" result="hardAlpha"/>
<feOffset/>
<feGaussianBlur stdDeviation="4.49556"/>
<feComposite in2="hardAlpha" operator="out"/>
<feColorMatrix type="matrix" values="0 0 0 0 1 0 0 0 0 1 0 0 0 0 1 0 0 0 0.25 0"/>
<feBlend mode="normal" in2="BackgroundImageFix" result="effect1_dropShadow_1_2063"/>
<feBlend mode="normal" in="SourceGraphic" in2="effect1_dropShadow_1_2063" result="shape"/>
</filter>
<clipPath id="clip0_1_2063">
<rect width="55" height="70" fill="white" transform="translate(0.893555)"/>
</clipPath>
</defs>
</svg>
