<svg width="25" height="19" viewBox="0 0 25 19" fill="none" xmlns="http://www.w3.org/2000/svg">
<g clip-path="url(#clip0_12_67)">
<path d="M23.8102 0.738281H1.05066V5.19236H23.8102V0.738281Z" fill="#034991"/>
<path d="M23.8102 5.62305H1.05066V12.6277H23.8102V5.62305Z" fill="#034991"/>
<path d="M23.8102 13.0625H1.05066V17.5166H23.8102V13.0625Z" fill="#034991"/>
<path d="M20.868 4.12305H20.1991V4.53214H20.868V4.12305Z" fill="white"/>
<path d="M20.0086 4.12305H19.3397V4.53214H20.0086V4.12305Z" fill="white"/>
<path d="M9.96338 3.35128H9.55273V2.77521H8.72718V3.35128H2.76211L2.68591 3.201L3.2532 2.47466V1.95703H2.44036L1.54285 3.10499L2.05511 4.18198H10.7889V2.77521H9.96338V3.35128Z" fill="white"/>
<path d="M10.7274 2.01953H10.0585V2.42862H10.7274V2.01953Z" fill="white"/>
<path d="M4.44612 2.14062H3.77722V2.54972H4.44612V2.14062Z" fill="white"/>
<path d="M5.31331 2.14062H4.64441V2.54972H5.31331V2.14062Z" fill="white"/>
<path d="M22.7883 2.6082H20.3497L19.9772 2.30347H22.5681L22.2972 1.83594H19.0416L18.9908 2.00291L20.1084 2.92128H22.0347V3.1634H19.956L19.249 2.58315H17.8393V3.8146H15.5193V3.3095H17.4752V2.58315H14.3085V4.40737H18.6733V3.43891L19.1686 3.84382H22.8221L23.3344 3.3262V3.15922L22.7883 2.6082Z" fill="white"/>
<path d="M13.1506 3H11.6053V3.66373H13.1506V3Z" fill="white"/>
<path d="M20.7954 11.9344L16.6169 8.83701L20.7192 6.35742H13.3698L9.77124 8.53228V6.35742H4.64441V11.9344H9.77124V9.03321L13.0607 11.9344H20.7954Z" fill="#FFED00"/>
<path d="M3.62097 16.9145V14.151H4.35761V14.4808C4.46345 14.3472 4.58622 14.2471 4.73016 14.1803C4.8741 14.1135 5.03074 14.0801 5.20855 14.0801C5.5176 14.0801 5.75045 14.1594 5.90286 14.318C6.05526 14.4766 6.1357 14.7146 6.1357 15.0318V16.9145H5.38636V15.2447C5.38636 15.0444 5.35249 14.9066 5.28476 14.8189C5.21702 14.7355 5.10695 14.6937 4.95454 14.6937C4.77673 14.6937 4.63702 14.7438 4.53542 14.8482C4.43381 14.9525 4.37878 15.0945 4.37878 15.274V16.9145H3.62097Z" fill="white"/>
<path d="M12.902 16.0405H13.6514C13.5752 16.3327 13.4228 16.5623 13.1941 16.7251C12.9655 16.8921 12.6861 16.9714 12.3559 16.9714C11.9495 16.9714 11.6277 16.8378 11.3907 16.5664C11.1536 16.2993 11.035 15.9319 11.035 15.4728C11.035 15.0219 11.1536 14.6629 11.3864 14.4041C11.6193 14.1411 11.941 14.0117 12.3474 14.0117C12.775 14.0117 13.1095 14.1411 13.3423 14.3958C13.5752 14.6546 13.6937 15.0177 13.6937 15.4936C13.6937 15.5479 13.6937 15.5855 13.6937 15.6105C13.6937 15.6356 13.6895 15.6606 13.6852 15.6857H11.814C11.8225 15.9027 11.8775 16.0655 11.9749 16.1782C12.0723 16.2868 12.212 16.3452 12.394 16.3452C12.521 16.3452 12.6268 16.3202 12.7115 16.2701C12.7877 16.2241 12.8512 16.1448 12.902 16.0405ZM11.8098 15.2056H12.9147C12.9063 15.0177 12.8555 14.8758 12.7623 14.7798C12.6692 14.6838 12.5337 14.6337 12.3601 14.6337C12.195 14.6337 12.068 14.6838 11.9749 14.7798C11.8775 14.88 11.8225 15.0219 11.8098 15.2056Z" fill="white"/>
<path d="M21.1352 17.2564C21.0675 17.2564 20.9828 17.2606 20.8897 17.2648C20.7923 17.2689 20.733 17.2731 20.7076 17.2731C20.4197 17.2731 20.225 17.2188 20.1192 17.1145C20.0133 17.0101 19.9625 16.8014 19.9625 16.4883V14.9939H19.59V14.4763H19.9625V13.7207H20.7034V14.4763H21.1352V14.9939H20.7034V16.5259C20.7034 16.5969 20.7203 16.647 20.7542 16.6678C20.7881 16.6887 20.8558 16.7012 20.9574 16.7012H21.1394V17.2564H21.1352Z" fill="white"/>
</g>
<defs>
<clipPath id="clip0_12_67">
<rect width="24" height="18" fill="white" transform="translate(0.425659 0.125)"/>
</clipPath>
</defs>
</svg>
