<svg width="70" height="70" viewBox="0 0 70 70" fill="none" xmlns="http://www.w3.org/2000/svg">
<g clip-path="url(#clip0_1_2042)">
<g filter="url(#filter0_d_1_2042)">
<path d="M64.8737 69.3933C64.8531 69.4384 64.8365 69.4851 64.8239 69.5331C64.8239 69.5556 64.842 69.5849 64.8511 69.6097H33.5306C33.5053 69.5855 33.4853 69.5565 33.4717 69.5243C33.4581 69.4921 33.4512 69.4575 33.4514 69.4226C33.8495 68.9717 34.4014 69.0235 34.9171 69.0235C44.4081 69.013 53.8997 69.013 63.3922 69.0235C63.9192 69.0235 64.4552 68.9807 64.8737 69.3933Z" fill="url(#paint0_linear_1_2042)"/>
</g>
<g filter="url(#filter1_d_1_2042)">
<path d="M69.5738 64.8927L69.3815 64.9558C69.0906 64.5024 68.936 63.9754 68.936 63.4372C68.936 62.899 69.0906 62.3721 69.3815 61.9187L69.5783 61.9728L69.5738 64.8927Z" fill="url(#paint1_linear_1_2042)"/>
</g>
<g filter="url(#filter2_d_1_2042)">
<path d="M52.3224 21.3161C52.932 21.3415 53.5205 21.5457 54.0141 21.9032C54.5078 22.2607 54.8845 22.7555 55.0972 23.3255C55.3099 23.8956 55.349 24.5155 55.2097 25.1077C55.0704 25.6998 54.7588 26.2377 54.314 26.6541C53.8693 27.0704 53.3111 27.3466 52.7095 27.448C52.1079 27.5494 51.4896 27.4715 50.9323 27.2241C50.3749 26.9767 49.9032 26.5708 49.5763 26.0573C49.2494 25.5437 49.0819 24.9454 49.0947 24.3374C49.1224 23.5106 49.4777 22.7285 50.0826 22.1623C50.6876 21.596 51.4929 21.2917 52.3224 21.3161Z" fill="url(#paint2_linear_1_2042)"/>
</g>
<g filter="url(#filter3_d_1_2042)">
<path d="M58.3617 23.1581C58.034 23.1505 57.711 23.0782 57.4116 22.9451C57.1122 22.8121 56.8422 22.6211 56.6175 22.3832C56.3927 22.1454 56.2176 21.8653 56.1023 21.5594C55.9871 21.2535 55.9339 20.9278 55.946 20.6012C55.9739 19.9609 56.2478 19.3558 56.711 18.9113C57.1742 18.4668 57.7912 18.217 58.4341 18.2135C58.7766 18.1915 59.1199 18.2403 59.4425 18.357C59.7652 18.4736 60.0601 18.6555 60.3088 18.8913C60.5575 19.127 60.7546 19.4115 60.8876 19.7268C61.0207 20.0422 61.0869 20.3815 61.0821 20.7236C61.0772 21.0657 61.0014 21.403 60.8595 21.7145C60.7175 22.026 60.5124 22.3048 60.2571 22.5334C60.0019 22.7621 59.7019 22.9356 59.3761 23.0431C59.0503 23.1506 58.7057 23.1897 58.364 23.1581H58.3617Z" fill="url(#paint3_linear_1_2042)"/>
</g>
<g filter="url(#filter4_d_1_2042)">
<path d="M10.8457 2.20886H39.0107C41.4042 2.20886 43.0386 2.8877 44.0723 3.91101C45.1032 4.93168 45.7832 6.53955 45.7832 8.89539C45.7832 13.1853 45.7693 17.4963 45.7979 21.8065C38.9733 23.171 34.1181 29.0443 34.0195 36.0497C34.0161 36.2866 34.0112 36.4871 34.0068 36.663C33.8188 36.6651 33.6039 36.6669 33.3477 36.6669C30.914 36.6669 28.5528 36.6961 26.1758 36.6493C25.6027 36.6372 24.9296 36.7246 24.29 37.119C23.6612 37.5069 23.29 38.0546 23.0488 38.5145C21.4922 41.4796 19.9275 44.3236 18.3369 47.3202L18.3359 47.3221C18.2637 47.4584 18.1998 47.5619 18.1465 47.6444C18.1158 47.5616 18.081 47.4582 18.0449 47.326H18.0459C17.2625 44.4431 16.4932 41.8365 15.7363 39.0067L15.7354 39.0057C15.6184 38.5697 15.3763 37.8291 14.71 37.2792C13.9883 36.6836 13.1536 36.612 12.54 36.6503C11.3882 36.7174 10.3101 36.6612 8.95117 36.661H8.95215C5.50675 36.6462 3.19002 33.6377 3.18164 31.1952L3.1875 30.9608C3.41802 27.0839 3.24317 23.0945 3.24316 19.3954C3.24316 15.7356 3.41814 11.782 3.1875 7.94031C3.04938 5.57959 5.19433 2.3939 8.7959 2.22253L8.79492 2.22156C9.44651 2.19063 10.066 2.20886 10.8457 2.20886ZM24.4453 7.04285C23.5843 7.03965 22.6814 7.21072 21.877 7.74597C21.0637 8.28717 20.5541 9.06458 20.2393 9.89929V9.90125C18.1875 15.3605 16.1169 20.7924 14.0547 26.2567C13.6955 27.205 13.5636 28.2724 13.9043 29.2948C14.2605 30.3637 15.0526 31.1356 16.0479 31.5526C18.2895 32.4919 20.8741 31.6016 21.8457 29.2303L21.8467 29.2284C22.2214 28.3118 22.5796 27.3808 22.9141 26.4344C23.9535 26.4592 24.9928 26.4593 26.0322 26.4344C26.3437 27.3222 26.7218 28.3079 26.9668 29.0165C27.2478 29.8292 27.7292 30.6031 28.5117 31.1464C29.2726 31.6745 30.1382 31.8584 30.9805 31.8436V31.8446C32.2948 31.856 33.6638 31.4132 34.5117 30.2469C35.3183 29.1372 35.3483 27.7939 34.958 26.6005L34.875 26.3641C32.7861 20.8281 30.703 15.4215 28.6299 9.91003L28.6289 9.9071L28.501 9.59753C28.1823 8.88221 27.7075 8.22554 26.9951 7.74988C26.1911 7.21305 25.2925 7.04605 24.4453 7.04285Z" stroke="white" stroke-width="3.85333" shape-rendering="crispEdges"/>
</g>
<g filter="url(#filter5_d_1_2042)">
<path d="M57.7202 31.2954C57.7188 31.4327 57.7179 31.5704 57.7183 31.7085C57.6168 31.698 57.5171 31.6854 57.4331 31.6792C57.005 31.6474 55.5214 31.5261 54.5864 32.7524C54.2039 33.2534 54.0609 33.793 54.0024 34.1968C53.9447 34.5957 53.9544 34.9794 53.9683 35.2593C54.0039 35.9767 54.0451 36.1648 54.0161 36.4038C53.6548 39.3089 54.6583 41.6499 56.0239 43.7466V43.7476C59.7323 49.4352 63.2747 55.216 66.9077 61.0103H66.9087C67.2838 61.6081 67.4158 61.8621 67.4595 62.0688C67.4611 62.9378 67.466 63.8056 67.4731 64.6724C67.2195 65.4693 66.8658 66.0531 66.439 66.479C66.0099 66.9072 65.4331 67.25 64.6313 67.4644L33.6548 67.4927C31.0283 66.9154 29.5986 63.7259 31.2241 61.1226L31.2261 61.1196C35.1376 54.8309 39.0776 48.5584 43.0464 42.3042C43.8148 41.0975 44.3095 39.7529 44.2065 38.1235H44.2075C44.1421 37.0425 44.1421 35.9585 44.2075 34.8774V34.8696C44.231 34.4538 44.2715 33.4484 43.5718 32.6392C42.8059 31.7538 41.7282 31.7199 41.1753 31.7427C40.9109 31.7536 40.6294 31.7854 40.4038 31.813C40.4038 31.7757 40.4023 31.7373 40.4028 31.6978C40.4046 31.5713 40.4089 31.443 40.4146 31.3091C46.1773 31.3064 51.9492 31.3102 57.7202 31.2954ZM50.6304 31.7554C49.6169 31.8131 48.6009 31.8132 47.5874 31.7554L47.5825 31.7544L47.397 31.7485C46.9083 31.7406 46.0551 31.8142 45.3853 32.5015C44.6539 33.2519 44.6566 34.2201 44.6665 34.6069V34.6079C44.6885 35.5333 44.6886 36.4649 44.686 37.4194C44.6835 38.3667 44.6788 39.3417 44.6938 40.3169V40.3403C44.6983 40.503 44.6527 40.6635 44.562 40.8003L44.5513 40.8179L44.5396 40.8354C42.4352 44.1596 40.342 47.4919 38.2603 50.8325L38.2573 50.8384C38.2635 50.8284 38.262 50.8318 38.1958 50.9204C38.1474 50.9852 38.0419 51.1246 37.9419 51.2856C37.7183 51.6457 37.4583 52.21 37.4917 52.9526L37.5747 54.7944L39.4175 54.7925L58.9468 54.7817L62.4312 54.7798L60.5767 51.8296C58.2626 48.1497 56.0489 44.5679 53.7817 41.0288L53.7622 40.9995L53.6958 40.8911C53.5729 40.671 53.5045 40.4253 53.4946 40.1743V40.0327L53.4956 40.0181C53.5178 39.0889 53.5146 38.1654 53.5112 37.271C53.5095 36.8196 53.5073 36.3755 53.5083 35.9351L53.5229 34.6216C53.5289 34.3382 53.5641 33.4132 52.9458 32.6548C52.3016 31.8647 51.4109 31.7459 50.8491 31.7485L50.6304 31.7554Z" stroke="white" stroke-width="3.85333" shape-rendering="crispEdges"/>
</g>
<g filter="url(#filter6_d_1_2042)">
<path d="M23.1167 20.2339L24.4625 16.4663C24.9149 17.7199 25.2723 18.721 25.6342 19.7063C25.7812 20.1099 25.6184 20.2429 25.2203 20.2362C24.5621 20.2249 23.9016 20.2339 23.1167 20.2339Z" fill="url(#paint4_linear_1_2042)"/>
</g>
</g>
<defs>
<filter id="filter0_d_1_2042" x="24.4603" y="60.0245" width="49.4046" height="18.5763" filterUnits="userSpaceOnUse" color-interpolation-filters="sRGB">
<feFlood flood-opacity="0" result="BackgroundImageFix"/>
<feColorMatrix in="SourceAlpha" type="matrix" values="0 0 0 0 0 0 0 0 0 0 0 0 0 0 0 0 0 0 127 0" result="hardAlpha"/>
<feOffset/>
<feGaussianBlur stdDeviation="4.49556"/>
<feComposite in2="hardAlpha" operator="out"/>
<feColorMatrix type="matrix" values="0 0 0 0 1 0 0 0 0 1 0 0 0 0 1 0 0 0 0.25 0"/>
<feBlend mode="normal" in2="BackgroundImageFix" result="effect1_dropShadow_1_2042"/>
<feBlend mode="normal" in="SourceGraphic" in2="effect1_dropShadow_1_2042" result="shape"/>
</filter>
<filter id="filter1_d_1_2042" x="59.9449" y="52.9276" width="18.6246" height="21.0193" filterUnits="userSpaceOnUse" color-interpolation-filters="sRGB">
<feFlood flood-opacity="0" result="BackgroundImageFix"/>
<feColorMatrix in="SourceAlpha" type="matrix" values="0 0 0 0 0 0 0 0 0 0 0 0 0 0 0 0 0 0 127 0" result="hardAlpha"/>
<feOffset/>
<feGaussianBlur stdDeviation="4.49556"/>
<feComposite in2="hardAlpha" operator="out"/>
<feColorMatrix type="matrix" values="0 0 0 0 1 0 0 0 0 1 0 0 0 0 1 0 0 0 0.25 0"/>
<feBlend mode="normal" in2="BackgroundImageFix" result="effect1_dropShadow_1_2042"/>
<feBlend mode="normal" in="SourceGraphic" in2="effect1_dropShadow_1_2042" result="shape"/>
</filter>
<filter id="filter2_d_1_2042" x="40.1029" y="12.3236" width="24.1797" height="24.1587" filterUnits="userSpaceOnUse" color-interpolation-filters="sRGB">
<feFlood flood-opacity="0" result="BackgroundImageFix"/>
<feColorMatrix in="SourceAlpha" type="matrix" values="0 0 0 0 0 0 0 0 0 0 0 0 0 0 0 0 0 0 127 0" result="hardAlpha"/>
<feOffset/>
<feGaussianBlur stdDeviation="4.49556"/>
<feComposite in2="hardAlpha" operator="out"/>
<feColorMatrix type="matrix" values="0 0 0 0 1 0 0 0 0 1 0 0 0 0 1 0 0 0 0.25 0"/>
<feBlend mode="normal" in2="BackgroundImageFix" result="effect1_dropShadow_1_2042"/>
<feBlend mode="normal" in="SourceGraphic" in2="effect1_dropShadow_1_2042" result="shape"/>
</filter>
<filter id="filter3_d_1_2042" x="46.9532" y="9.21726" width="23.1202" height="22.9425" filterUnits="userSpaceOnUse" color-interpolation-filters="sRGB">
<feFlood flood-opacity="0" result="BackgroundImageFix"/>
<feColorMatrix in="SourceAlpha" type="matrix" values="0 0 0 0 0 0 0 0 0 0 0 0 0 0 0 0 0 0 127 0" result="hardAlpha"/>
<feOffset/>
<feGaussianBlur stdDeviation="4.49556"/>
<feComposite in2="hardAlpha" operator="out"/>
<feColorMatrix type="matrix" values="0 0 0 0 1 0 0 0 0 1 0 0 0 0 1 0 0 0 0.25 0"/>
<feBlend mode="normal" in2="BackgroundImageFix" result="effect1_dropShadow_1_2042"/>
<feBlend mode="normal" in="SourceGraphic" in2="effect1_dropShadow_1_2042" result="shape"/>
</filter>
<filter id="filter4_d_1_2042" x="-7.73623" y="-8.71389" width="64.4559" height="67.4006" filterUnits="userSpaceOnUse" color-interpolation-filters="sRGB">
<feFlood flood-opacity="0" result="BackgroundImageFix"/>
<feColorMatrix in="SourceAlpha" type="matrix" values="0 0 0 0 0 0 0 0 0 0 0 0 0 0 0 0 0 0 127 0" result="hardAlpha"/>
<feOffset/>
<feGaussianBlur stdDeviation="4.49556"/>
<feComposite in2="hardAlpha" operator="out"/>
<feColorMatrix type="matrix" values="0 0 0 0 1 0 0 0 0 1 0 0 0 0 1 0 0 0 0.25 0"/>
<feBlend mode="normal" in2="BackgroundImageFix" result="effect1_dropShadow_1_2042"/>
<feBlend mode="normal" in="SourceGraphic" in2="effect1_dropShadow_1_2042" result="shape"/>
</filter>
<filter id="filter5_d_1_2042" x="19.6227" y="20.3766" width="58.7706" height="58.0348" filterUnits="userSpaceOnUse" color-interpolation-filters="sRGB">
<feFlood flood-opacity="0" result="BackgroundImageFix"/>
<feColorMatrix in="SourceAlpha" type="matrix" values="0 0 0 0 0 0 0 0 0 0 0 0 0 0 0 0 0 0 127 0" result="hardAlpha"/>
<feOffset/>
<feGaussianBlur stdDeviation="4.49556"/>
<feComposite in2="hardAlpha" operator="out"/>
<feColorMatrix type="matrix" values="0 0 0 0 1 0 0 0 0 1 0 0 0 0 1 0 0 0 0.25 0"/>
<feBlend mode="normal" in2="BackgroundImageFix" result="effect1_dropShadow_1_2042"/>
<feBlend mode="normal" in="SourceGraphic" in2="effect1_dropShadow_1_2042" result="shape"/>
</filter>
<filter id="filter6_d_1_2042" x="14.1256" y="7.4752" width="20.553" height="21.7524" filterUnits="userSpaceOnUse" color-interpolation-filters="sRGB">
<feFlood flood-opacity="0" result="BackgroundImageFix"/>
<feColorMatrix in="SourceAlpha" type="matrix" values="0 0 0 0 0 0 0 0 0 0 0 0 0 0 0 0 0 0 127 0" result="hardAlpha"/>
<feOffset/>
<feGaussianBlur stdDeviation="4.49556"/>
<feComposite in2="hardAlpha" operator="out"/>
<feColorMatrix type="matrix" values="0 0 0 0 1 0 0 0 0 1 0 0 0 0 1 0 0 0 0.25 0"/>
<feBlend mode="normal" in2="BackgroundImageFix" result="effect1_dropShadow_1_2042"/>
<feBlend mode="normal" in="SourceGraphic" in2="effect1_dropShadow_1_2042" result="shape"/>
</filter>
<linearGradient id="paint0_linear_1_2042" x1="49.1626" y1="69.0156" x2="49.1626" y2="69.6097" gradientUnits="userSpaceOnUse">
<stop stop-color="white"/>
<stop offset="1" stop-color="#E5E5E5"/>
</linearGradient>
<linearGradient id="paint1_linear_1_2042" x1="69.2572" y1="61.9187" x2="69.2573" y2="64.9558" gradientUnits="userSpaceOnUse">
<stop stop-color="white"/>
<stop offset="1" stop-color="#E5E5E5"/>
</linearGradient>
<linearGradient id="paint2_linear_1_2042" x1="52.1928" y1="21.3147" x2="52.1929" y2="27.4912" gradientUnits="userSpaceOnUse">
<stop stop-color="white"/>
<stop offset="1" stop-color="#E5E5E5"/>
</linearGradient>
<linearGradient id="paint3_linear_1_2042" x1="58.5133" y1="18.2084" x2="58.5134" y2="23.1687" gradientUnits="userSpaceOnUse">
<stop stop-color="white"/>
<stop offset="1" stop-color="#E5E5E5"/>
</linearGradient>
<linearGradient id="paint4_linear_1_2042" x1="24.4021" y1="16.4663" x2="24.4022" y2="20.2364" gradientUnits="userSpaceOnUse">
<stop stop-color="white"/>
<stop offset="1" stop-color="#E5E5E5"/>
</linearGradient>
<clipPath id="clip0_1_2042">
<rect width="69" height="70" fill="white" transform="translate(0.893555)"/>
</clipPath>
</defs>
</svg>
