<svg width="54" height="19" viewBox="0 0 54 19" fill="none" xmlns="http://www.w3.org/2000/svg">
<g clip-path="url(#clip0_12_52)">
<path d="M22.8324 10.5039H-0.00146484V18.1107H22.8324V10.5039Z" fill="#84B740"/>
<path d="M22.8324 0.125H-0.00146484V7.73856H22.8324V0.125Z" fill="#259BD6"/>
<path d="M45.6682 16.5652L45.5665 16.5855C45.214 16.6533 45.0852 16.6804 44.8275 16.6804C44.2309 16.6804 43.5258 16.3753 43.5258 14.938C43.5258 14.1991 43.6479 13.216 44.7597 13.216H44.7665C44.9563 13.2296 45.1733 13.2499 45.5801 13.3719L45.6682 13.3991V16.5652ZM45.8513 9.39906L45.6682 9.43296V12.0906L45.5055 12.0431L45.458 12.0296C45.275 11.9753 44.8546 11.8533 44.4479 11.8533C42.2241 11.8533 41.7563 13.5347 41.7563 14.9448C41.7563 16.877 42.8411 17.9889 44.7326 17.9889C45.5326 17.9889 46.1224 17.9075 46.7191 17.7109C47.2682 17.5347 47.4648 17.2838 47.4648 16.7482V9.12109C46.936 9.21601 46.3869 9.31092 45.8513 9.39906Z" fill="white"/>
<path d="M52.2744 16.6135L52.1794 16.6407L51.8405 16.7288C51.5218 16.8101 51.2371 16.8576 51.0201 16.8576C50.4981 16.8576 50.1862 16.6 50.1862 16.1593C50.1862 15.8746 50.315 15.3932 51.1693 15.3932H52.2744V16.6135ZM51.4947 11.8203C50.8099 11.8203 50.1049 11.9423 49.2303 12.2135L48.6608 12.383L48.8506 13.6712L49.4066 13.4881C49.9896 13.2983 50.715 13.1762 51.2574 13.1762C51.5015 13.1762 52.2472 13.1762 52.2472 13.983V14.3356H51.21C49.3184 14.3356 48.4438 14.939 48.4438 16.2339C48.4438 17.339 49.2506 18.0034 50.6066 18.0034C51.0269 18.0034 51.61 17.922 52.1116 17.8L52.1388 17.7932L52.1659 17.8L52.3354 17.8271C52.8642 17.922 53.4133 18.0169 53.9489 18.1186V13.8881C53.9489 12.5186 53.1218 11.8203 51.4947 11.8203Z" fill="white"/>
<path d="M39.1025 16.6135L39.0076 16.6407L38.6686 16.7288C38.3499 16.8101 38.072 16.8576 37.8482 16.8576C37.3262 16.8576 37.0143 16.6 37.0143 16.1593C37.0143 15.8745 37.1432 15.3932 37.9906 15.3932H39.0957L39.1025 16.6135ZM38.3296 11.8203C37.6381 11.8203 36.9398 11.9423 36.0652 12.2135L35.4957 12.383L35.6855 13.6712L36.2415 13.4881C36.8245 13.2983 37.5499 13.1762 38.0923 13.1762C38.3364 13.1762 39.0821 13.1762 39.0821 13.983V14.3356H38.0449C36.1533 14.3356 35.272 14.939 35.272 16.2339C35.272 17.339 36.0788 18.0034 37.4415 18.0034C37.8618 18.0034 38.4449 17.922 38.9465 17.8L38.9737 17.7932L39.0008 17.8L39.1635 17.8271C39.6991 17.922 40.2415 18.0169 40.7771 18.1254V13.8949C40.7838 12.5118 39.9567 11.8203 38.3296 11.8203Z" fill="white"/>
<path d="M31.9672 11.8349C31.1062 11.8349 30.3943 12.1196 30.1299 12.2417L30.0621 12.2756L30.0011 12.2281C29.635 11.9637 29.0994 11.8281 28.3537 11.8281C27.696 11.8281 27.0791 11.923 26.4079 12.1196C25.8316 12.2959 25.6079 12.5739 25.6079 13.0959V17.9298H27.4113V13.462L27.4994 13.4349C27.8655 13.3129 28.0825 13.2925 28.2927 13.2925C28.8147 13.2925 29.0791 13.5705 29.0791 14.1129V17.9366H30.8554V14.0383C30.8554 13.8078 30.8079 13.6722 30.8011 13.6451L30.7401 13.5298L30.8621 13.4756C31.1333 13.3535 31.4316 13.2925 31.7435 13.2925C32.1028 13.2925 32.5299 13.4349 32.5299 14.1129V17.9366H34.2994V13.9366C34.2994 12.5196 33.5401 11.8349 31.9672 11.8349Z" fill="white"/>
<path d="M50.9477 5.08771C50.6833 5.08771 50.2426 5.06059 49.8968 4.9928L49.7951 4.97246V2.36229C49.7951 2.14534 49.7545 2.00975 49.7477 1.98941L49.6935 1.88093L49.8087 1.83347C49.8358 1.81992 49.8629 1.81314 49.8968 1.79958L49.9172 1.78602C49.9579 1.77246 49.9985 1.7589 50.0392 1.74534C50.0596 1.73856 50.0731 1.73178 50.0867 1.73178C50.4867 1.62331 50.8528 1.63686 51.0155 1.62331H51.0223C52.1273 1.62331 52.2562 2.60636 52.2562 3.34534C52.2494 4.78263 51.5375 5.08771 50.9477 5.08771ZM50.9409 0.125C50.9274 0.125 50.907 0.125 50.8935 0.125C49.8562 0.125 48.7918 0.409746 48.4121 0.965678C48.2087 1.23686 48.0935 1.57585 48.0867 1.97585V4.66737C48.0867 4.89788 48.0392 4.98602 48.0324 5.00636L47.9714 5.12161H44.6968V3.25042H44.6901C44.6494 1.27754 43.4833 0.192797 41.7951 0.192797H41.5985H40.1477C40.0799 0.674153 40.0257 1.01314 39.9579 1.49449H41.5985C42.4596 1.49449 42.9138 2.22669 42.9138 3.35212V5.23686L42.7985 5.17585C42.7782 5.16907 42.6358 5.12161 42.4121 5.12161H39.5782C39.524 5.48093 39.4562 5.94873 39.3816 6.41653H48.0935C48.3918 6.35551 48.7375 6.30127 49.0358 6.25381C49.4765 6.47076 50.2968 6.58602 50.8596 6.58602C52.7511 6.58602 53.9782 5.31822 53.9782 3.36568C53.9714 1.43347 52.785 0.165678 50.9409 0.125Z" fill="white"/>
<path d="M35.6689 7.20939H35.7503C37.6418 7.20939 38.5232 6.58566 38.5232 5.04668C38.5232 3.94159 37.7164 3.06024 36.3605 3.06024H34.6181C34.096 3.06024 33.7842 2.76193 33.7842 2.26024C33.7842 1.92125 33.913 1.50091 34.7672 1.50091H38.5774C38.6588 1.006 38.6994 0.694134 38.774 0.199219H34.8147C32.9706 0.199219 32.0418 0.9721 32.0418 2.26024C32.0418 3.53481 32.8486 4.19922 34.2045 4.19922H35.9469C36.4689 4.19922 36.7808 4.61278 36.7808 5.04668C36.7808 5.33142 36.652 5.92125 35.8045 5.92125H35.513L29.9333 5.90769H28.9164C28.0554 5.90769 27.452 5.41956 27.452 4.28735V3.50769C27.452 2.32803 27.9198 1.59583 28.9164 1.59583H30.5706C30.6452 1.09413 30.6927 0.77549 30.7605 0.300914H28.6994H28.5028C26.8147 0.300914 25.6486 1.43312 25.6079 3.406V3.48057V4.28735C25.6486 6.26024 26.8147 7.20261 28.5028 7.20261H28.6994H30.1503L33.174 7.20939H34.9774H35.6689Z" fill="white"/>
</g>
<defs>
<clipPath id="clip0_12_52">
<rect width="53.9797" height="18" fill="white" transform="translate(-0.00146484 0.125)"/>
</clipPath>
</defs>
</svg>
