<svg width="31" height="20" viewBox="0 0 31 20" fill="none" xmlns="http://www.w3.org/2000/svg">
<path d="M19.8468 2.69678H11.5795V17.5534H19.8468V2.69678Z" fill="#FF5F00"/>
<path d="M12.1042 10.1251C12.1028 8.69434 12.4271 7.282 13.0523 5.99502C13.6775 4.70805 14.5873 3.58019 15.7129 2.69683C14.319 1.60124 12.6451 0.919917 10.8824 0.73072C9.11961 0.541523 7.3392 0.852084 5.74461 1.62692C4.15003 2.40175 2.80561 3.6096 1.86503 5.11239C0.924449 6.61517 0.425659 8.35227 0.425659 10.1251C0.425659 11.898 0.924449 13.6351 1.86503 15.1379C2.80561 16.6407 4.15003 17.8485 5.74461 18.6234C7.3392 19.3982 9.11961 19.7088 10.8824 19.5196C12.6451 19.3304 14.319 18.649 15.7129 17.5535C14.5873 16.6701 13.6775 15.5422 13.0523 14.2553C12.4271 12.9683 12.1029 11.5559 12.1042 10.1251Z" fill="#EB001B"/>
<path d="M31 10.1251C31.0001 11.898 30.5013 13.6351 29.5608 15.1379C28.6203 16.6407 27.2759 17.8485 25.6814 18.6233C24.0868 19.3982 22.3064 19.7088 20.5437 19.5196C18.781 19.3304 17.1071 18.649 15.7133 17.5535C16.8378 16.6692 17.7469 15.5412 18.372 14.2544C18.9972 12.9676 19.322 11.5557 19.322 10.1251C19.322 8.69457 18.9972 7.28266 18.372 5.9959C17.7469 4.70913 16.8378 3.58109 15.7133 2.69682C17.1071 1.60124 18.781 0.919912 20.5437 0.730718C22.3064 0.541523 24.0868 0.852097 25.6814 1.62694C27.2759 2.40178 28.6203 3.60963 29.5608 5.11242C30.5013 6.61521 31.0001 8.3523 31 10.1251Z" fill="#F79E1B"/>
<path d="M30.0983 15.98V15.6759H30.2209V15.6139H29.9086V15.6759H30.0313V15.98H30.0983ZM30.7047 15.98V15.6133H30.6089L30.4988 15.8655L30.3887 15.6133H30.2929V15.98H30.3605V15.7034L30.4637 15.9419H30.5338L30.6371 15.7028V15.98H30.7047Z" fill="#F79E1B"/>
</svg>
