<svg width="18" height="21" viewBox="0 0 18 21" fill="none" xmlns="http://www.w3.org/2000/svg">
<g clip-path="url(#clip0_12_62)">
<path d="M7.40934 4.05078C7.27035 4.05077 7.13592 4.10037 7.03025 4.19066C6.92457 4.28094 6.85458 4.40598 6.83289 4.54326L5.87481 10.6183L4.99455 16.2004L4.99402 16.2051L4.99508 16.2004L5.87535 10.6183C5.9201 10.3345 6.16437 10.1258 6.45148 10.1258H9.2582C12.0829 10.1258 14.4804 8.06495 14.9182 5.27237C14.9516 5.0602 14.9694 4.85004 14.9735 4.64266V4.64234H14.9732C14.2553 4.26572 13.4124 4.05078 12.4887 4.05078H7.40934Z" fill="#001C64"/>
<path d="M14.9759 4.64062C14.972 4.84801 14.9539 5.05838 14.9206 5.27055C14.4828 8.06314 12.0853 10.124 9.26065 10.124H6.45392C6.16681 10.124 5.92254 10.3327 5.87778 10.6164L4.99752 16.1986L4.44509 19.7009C4.43445 19.7685 4.43859 19.8377 4.45723 19.9036C4.47587 19.9695 4.50856 20.0305 4.55306 20.0826C4.59755 20.1346 4.6528 20.1764 4.715 20.2051C4.77719 20.2338 4.84485 20.2486 4.91333 20.2486H7.95987C8.09886 20.2486 8.23329 20.199 8.33897 20.1087C8.44465 20.0185 8.51463 19.8934 8.53633 19.7561L9.33888 14.6664C9.38385 14.3827 9.62823 14.1736 9.91535 14.1736H11.7092C14.5339 14.1736 16.9311 12.1129 17.3689 9.32055C17.6797 7.33818 16.6821 5.53481 14.9759 4.64062Z" fill="#0070E0"/>
<path d="M3.95123 0C3.81219 4.33144e-06 3.67771 0.0496505 3.57203 0.139998C3.46634 0.230345 3.39639 0.355458 3.37476 0.492804L0.984201 15.6519C0.973509 15.7196 0.977615 15.7888 0.99623 15.8547C1.01484 15.9206 1.04753 15.9817 1.09203 16.0338C1.13653 16.0859 1.1918 16.1278 1.25402 16.1564C1.31624 16.1851 1.38394 16.2 1.45245 16.2H4.99763L5.8779 10.6178L6.83597 4.5428C6.85767 4.40551 6.92765 4.28047 7.03333 4.19019C7.139 4.09991 7.27343 4.05031 7.41243 4.05031H12.4916C13.4155 4.05031 14.2584 4.26557 14.9763 4.64166C15.0252 2.0993 12.9274 0 10.0428 0H3.95123Z" fill="#003087"/>
</g>
<defs>
<clipPath id="clip0_12_62">
<rect width="16.4474" height="20.25" fill="white" transform="translate(0.978271)"/>
</clipPath>
</defs>
</svg>
