<svg width="71" height="70" viewBox="0 0 71 70" fill="none" xmlns="http://www.w3.org/2000/svg">
<g clip-path="url(#clip0_1_2108)">
<g filter="url(#filter0_d_1_2108)">
<mask id="path-1-inside-1_1_2108" fill="white">
<path d="M62.1492 69.9987H27.1486V61.2492H18.3984C16.0777 61.2492 13.8528 60.3267 12.2118 58.6859C10.5708 57.045 9.64826 54.8202 9.64826 52.4997V43.7501H5.2683C4.54092 43.747 3.82683 43.5637 3.18819 43.2155C2.54955 42.8674 2.00771 42.3653 1.61101 41.7556C1.21431 41.146 0.972362 40.4469 0.912756 39.722C0.853149 38.9972 0.977418 38.2693 1.26921 37.603C2.37173 35.1031 3.63073 31.389 4.85326 27.7842L4.8679 27.7525V27.7158L4.91185 27.5767C6.45148 22.1878 8.57872 16.9843 11.2547 12.0599C13.8823 8.33612 17.3653 5.29657 21.4112 3.19811C25.457 1.09965 29.9494 0.00303878 34.5071 4.095e-05H44.644C49.9599 -0.00935067 55.1553 1.59689 59.5368 4.60673C63.9184 7.61656 67.2774 11.8871 69.1757 16.8522C71.074 21.8172 71.4181 27.243 70.162 32.408C68.906 37.5729 66.1107 42.2325 62.1443 45.7715L62.159 69.9963L62.1492 69.9987ZM35.6009 36.4873C36.3691 36.4924 37.1045 36.7977 37.6517 37.3369C38.1989 37.8761 38.5144 38.6074 38.5306 39.3754V41.409C38.5293 42.1825 38.8346 42.9235 39.3802 43.4718C39.9258 44.0202 40.6672 44.331 41.4408 44.3336H44.3608C45.135 44.3316 45.8797 44.0227 46.4263 43.4743C46.9728 42.9259 47.2765 42.1831 47.2759 41.409V39.5194C47.2909 38.7492 47.6065 38.0173 48.1548 37.4761C48.7031 36.9348 49.4401 36.6291 50.2105 36.6241C50.7199 36.6222 51.2198 36.7653 51.651 37.0366L53.4039 38.0595C53.7284 38.2568 54.0878 38.3876 54.4635 38.4428C54.8392 38.498 55.2191 38.4774 55.5866 38.3818C55.9541 38.2862 56.3011 38.1175 56.6022 37.8862C56.9034 37.6549 57.1524 37.367 57.3395 37.0366L58.7898 34.5612C59.1646 33.853 59.2696 33.0308 59.0827 32.2517C58.8959 31.4726 58.4342 30.7892 57.779 30.328L56.026 29.3149C55.5897 29.0464 55.231 28.6709 54.9811 28.2236C54.7312 27.7764 54.6002 27.2736 54.6002 26.7613C54.6002 26.249 54.7312 25.7438 54.9811 25.2965C55.231 24.8493 55.5897 24.4738 56.026 24.2053L57.779 23.1824C58.1284 22.9798 58.4322 22.7062 58.6726 22.3817C58.9129 22.0571 59.0837 21.6861 59.1755 21.2928C59.2575 20.9439 59.2653 20.5833 59.1999 20.2309C59.1345 19.8784 58.9964 19.5434 58.7946 19.2471L57.3444 16.7716C57.0969 16.3308 56.7387 15.9636 56.3044 15.7048C55.8701 15.446 55.3743 15.305 54.8688 15.2971C54.347 15.301 53.8379 15.4566 53.4039 15.7463L51.6558 16.7716C51.2253 17.0442 50.725 17.1875 50.2154 17.1842C49.4578 17.1728 48.7308 16.8784 48.1792 16.359C47.8976 16.092 47.6743 15.7704 47.52 15.4143C47.3658 15.0581 47.2829 14.6745 47.2808 14.2864V12.2504C47.2801 11.4777 46.9729 10.736 46.4263 10.1899C45.8797 9.64383 45.1384 9.33792 44.3657 9.33792H41.4457C40.6737 9.33858 39.9357 9.64383 39.39 10.1899C38.8443 10.736 38.5355 11.4784 38.5355 12.2504V14.1521C38.5212 14.9217 38.2088 15.6543 37.6615 16.1955C37.1141 16.7367 36.3755 17.0442 35.6058 17.0499C35.0922 17.0464 34.5897 16.8994 34.1555 16.6251L32.4075 15.7463C31.9642 15.4773 31.4562 15.3346 30.9377 15.3337C30.4359 15.3314 29.9405 15.4642 29.507 15.717C29.0735 15.9698 28.7169 16.3337 28.4718 16.7716L27.0119 19.2471C26.6582 19.9368 26.5645 20.7314 26.7531 21.4833C26.9416 22.2351 27.4 22.8925 28.0373 23.3338L29.7853 24.3566C30.2263 24.5989 30.5937 24.9583 30.8449 25.3942C31.0962 25.8301 31.2226 26.3266 31.2111 26.8297C31.2224 27.3363 31.0959 27.8346 30.8449 28.2749C30.5939 28.7152 30.2271 29.081 29.7853 29.3295L28.0373 30.3402C27.687 30.5434 27.3811 30.8166 27.1388 31.141C26.8965 31.4653 26.7216 31.8339 26.6261 32.2273C26.5477 32.5768 26.5404 32.9397 26.6066 33.2917C26.6728 33.6437 26.8119 33.9784 27.0119 34.2756L28.4718 36.7608C28.7185 37.2023 29.0774 37.5711 29.5119 37.83C29.9464 38.089 30.4417 38.2284 30.9475 38.2353C31.4682 38.2372 31.9772 38.0819 32.4075 37.7885L34.1555 36.9097C34.5885 36.6372 35.0893 36.491 35.6009 36.4873ZM52.2271 6.98941C51.7665 6.98941 51.3162 7.12667 50.9332 7.38246C50.5501 7.63825 50.2503 8.00189 50.0738 8.42732C49.8973 8.85276 49.8524 9.32065 49.9419 9.77247C50.0314 10.2243 50.2514 10.6402 50.5767 10.9663C50.9021 11.2923 51.3165 11.513 51.7682 11.6034C52.2198 11.6939 52.69 11.6496 53.1158 11.474C53.5417 11.2985 53.9041 10.9996 54.1608 10.6171C54.4174 10.2347 54.5553 9.78386 54.5563 9.32327C54.553 8.70706 54.3091 8.11777 53.8727 7.68274C53.4362 7.2477 52.8434 7.00293 52.2271 7.00162V6.98941ZM42.9008 32.6545C41.7468 32.6545 40.6181 32.3142 39.6586 31.6732C38.699 31.0321 37.9518 30.1197 37.5101 29.0537C37.0684 27.9877 36.9531 26.8165 37.178 25.6847C37.403 24.553 37.959 23.5127 38.7748 22.6966C39.5906 21.8805 40.6314 21.3254 41.7631 21.1C42.8948 20.8746 44.066 20.9883 45.1323 21.4296C46.1986 21.8708 47.1129 22.6187 47.7544 23.5779C48.3959 24.5371 48.7354 25.6636 48.7359 26.8175C48.7365 28.366 48.121 29.8521 47.0269 30.9481C45.9327 32.044 44.4495 32.6623 42.9008 32.6643V32.6545Z"/>
</mask>
<path d="M62.1492 69.9987H27.1486V61.2492H18.3984C16.0777 61.2492 13.8528 60.3267 12.2118 58.6859C10.5708 57.045 9.64826 54.8202 9.64826 52.4997V43.7501H5.2683C4.54092 43.747 3.82683 43.5637 3.18819 43.2155C2.54955 42.8674 2.00771 42.3653 1.61101 41.7556C1.21431 41.146 0.972362 40.4469 0.912756 39.722C0.853149 38.9972 0.977418 38.2693 1.26921 37.603C2.37173 35.1031 3.63073 31.389 4.85326 27.7842L4.8679 27.7525V27.7158L4.91185 27.5767C6.45148 22.1878 8.57872 16.9843 11.2547 12.0599C13.8823 8.33612 17.3653 5.29657 21.4112 3.19811C25.457 1.09965 29.9494 0.00303878 34.5071 4.095e-05H44.644C49.9599 -0.00935067 55.1553 1.59689 59.5368 4.60673C63.9184 7.61656 67.2774 11.8871 69.1757 16.8522C71.074 21.8172 71.4181 27.243 70.162 32.408C68.906 37.5729 66.1107 42.2325 62.1443 45.7715L62.159 69.9963L62.1492 69.9987ZM35.6009 36.4873C36.3691 36.4924 37.1045 36.7977 37.6517 37.3369C38.1989 37.8761 38.5144 38.6074 38.5306 39.3754V41.409C38.5293 42.1825 38.8346 42.9235 39.3802 43.4718C39.9258 44.0202 40.6672 44.331 41.4408 44.3336H44.3608C45.135 44.3316 45.8797 44.0227 46.4263 43.4743C46.9728 42.9259 47.2765 42.1831 47.2759 41.409V39.5194C47.2909 38.7492 47.6065 38.0173 48.1548 37.4761C48.7031 36.9348 49.4401 36.6291 50.2105 36.6241C50.7199 36.6222 51.2198 36.7653 51.651 37.0366L53.4039 38.0595C53.7284 38.2568 54.0878 38.3876 54.4635 38.4428C54.8392 38.498 55.2191 38.4774 55.5866 38.3818C55.9541 38.2862 56.3011 38.1175 56.6022 37.8862C56.9034 37.6549 57.1524 37.367 57.3395 37.0366L58.7898 34.5612C59.1646 33.853 59.2696 33.0308 59.0827 32.2517C58.8959 31.4726 58.4342 30.7892 57.779 30.328L56.026 29.3149C55.5897 29.0464 55.231 28.6709 54.9811 28.2236C54.7312 27.7764 54.6002 27.2736 54.6002 26.7613C54.6002 26.249 54.7312 25.7438 54.9811 25.2965C55.231 24.8493 55.5897 24.4738 56.026 24.2053L57.779 23.1824C58.1284 22.9798 58.4322 22.7062 58.6726 22.3817C58.9129 22.0571 59.0837 21.6861 59.1755 21.2928C59.2575 20.9439 59.2653 20.5833 59.1999 20.2309C59.1345 19.8784 58.9964 19.5434 58.7946 19.2471L57.3444 16.7716C57.0969 16.3308 56.7387 15.9636 56.3044 15.7048C55.8701 15.446 55.3743 15.305 54.8688 15.2971C54.347 15.301 53.8379 15.4566 53.4039 15.7463L51.6558 16.7716C51.2253 17.0442 50.725 17.1875 50.2154 17.1842C49.4578 17.1728 48.7308 16.8784 48.1792 16.359C47.8976 16.092 47.6743 15.7704 47.52 15.4143C47.3658 15.0581 47.2829 14.6745 47.2808 14.2864V12.2504C47.2801 11.4777 46.9729 10.736 46.4263 10.1899C45.8797 9.64383 45.1384 9.33792 44.3657 9.33792H41.4457C40.6737 9.33858 39.9357 9.64383 39.39 10.1899C38.8443 10.736 38.5355 11.4784 38.5355 12.2504V14.1521C38.5212 14.9217 38.2088 15.6543 37.6615 16.1955C37.1141 16.7367 36.3755 17.0442 35.6058 17.0499C35.0922 17.0464 34.5897 16.8994 34.1555 16.6251L32.4075 15.7463C31.9642 15.4773 31.4562 15.3346 30.9377 15.3337C30.4359 15.3314 29.9405 15.4642 29.507 15.717C29.0735 15.9698 28.7169 16.3337 28.4718 16.7716L27.0119 19.2471C26.6582 19.9368 26.5645 20.7314 26.7531 21.4833C26.9416 22.2351 27.4 22.8925 28.0373 23.3338L29.7853 24.3566C30.2263 24.5989 30.5937 24.9583 30.8449 25.3942C31.0962 25.8301 31.2226 26.3266 31.2111 26.8297C31.2224 27.3363 31.0959 27.8346 30.8449 28.2749C30.5939 28.7152 30.2271 29.081 29.7853 29.3295L28.0373 30.3402C27.687 30.5434 27.3811 30.8166 27.1388 31.141C26.8965 31.4653 26.7216 31.8339 26.6261 32.2273C26.5477 32.5768 26.5404 32.9397 26.6066 33.2917C26.6728 33.6437 26.8119 33.9784 27.0119 34.2756L28.4718 36.7608C28.7185 37.2023 29.0774 37.5711 29.5119 37.83C29.9464 38.089 30.4417 38.2284 30.9475 38.2353C31.4682 38.2372 31.9772 38.0819 32.4075 37.7885L34.1555 36.9097C34.5885 36.6372 35.0893 36.491 35.6009 36.4873ZM52.2271 6.98941C51.7665 6.98941 51.3162 7.12667 50.9332 7.38246C50.5501 7.63825 50.2503 8.00189 50.0738 8.42732C49.8973 8.85276 49.8524 9.32065 49.9419 9.77247C50.0314 10.2243 50.2514 10.6402 50.5767 10.9663C50.9021 11.2923 51.3165 11.513 51.7682 11.6034C52.2198 11.6939 52.69 11.6496 53.1158 11.474C53.5417 11.2985 53.9041 10.9996 54.1608 10.6171C54.4174 10.2347 54.5553 9.78386 54.5563 9.32327C54.553 8.70706 54.3091 8.11777 53.8727 7.68274C53.4362 7.2477 52.8434 7.00293 52.2271 7.00162V6.98941ZM42.9008 32.6545C41.7468 32.6545 40.6181 32.3142 39.6586 31.6732C38.699 31.0321 37.9518 30.1197 37.5101 29.0537C37.0684 27.9877 36.9531 26.8165 37.178 25.6847C37.403 24.553 37.959 23.5127 38.7748 22.6966C39.5906 21.8805 40.6314 21.3254 41.7631 21.1C42.8948 20.8746 44.066 20.9883 45.1323 21.4296C46.1986 21.8708 47.1129 22.6187 47.7544 23.5779C48.3959 24.5371 48.7354 25.6636 48.7359 26.8175C48.7365 28.366 48.121 29.8521 47.0269 30.9481C45.9327 32.044 44.4495 32.6623 42.9008 32.6643V32.6545Z" stroke="white" stroke-width="7.70667" shape-rendering="crispEdges" mask="url(#path-1-inside-1_1_2108)"/>
</g>
</g>
<defs>
<filter id="filter0_d_1_2108" x="-8.09292" y="-8.99111" width="87.9883" height="87.9809" filterUnits="userSpaceOnUse" color-interpolation-filters="sRGB">
<feFlood flood-opacity="0" result="BackgroundImageFix"/>
<feColorMatrix in="SourceAlpha" type="matrix" values="0 0 0 0 0 0 0 0 0 0 0 0 0 0 0 0 0 0 127 0" result="hardAlpha"/>
<feOffset/>
<feGaussianBlur stdDeviation="4.49556"/>
<feComposite in2="hardAlpha" operator="out"/>
<feColorMatrix type="matrix" values="0 0 0 0 1 0 0 0 0 1 0 0 0 0 1 0 0 0 0.25 0"/>
<feBlend mode="normal" in2="BackgroundImageFix" result="effect1_dropShadow_1_2108"/>
<feBlend mode="normal" in="SourceGraphic" in2="effect1_dropShadow_1_2108" result="shape"/>
</filter>
<clipPath id="clip0_1_2108">
<rect width="70" height="70" fill="white" transform="translate(0.893555)"/>
</clipPath>
</defs>
</svg>
