<svg width="20" height="20" viewBox="0 0 20 20" fill="none" xmlns="http://www.w3.org/2000/svg">
<g clip-path="url(#clip0_12_428)">
<path d="M16.3783 11.0071C10.8198 9.93989 10.0605 9.18064 8.99396 3.62214C8.9775 3.53652 8.93172 3.4593 8.8645 3.40378C8.79727 3.34825 8.7128 3.31787 8.62561 3.31787C8.53842 3.31787 8.45395 3.34825 8.38673 3.40378C8.31951 3.4593 8.27373 3.53652 8.25727 3.62214C7.19067 9.18064 6.4314 9.93989 0.872622 11.0071C0.78702 11.0235 0.709808 11.0692 0.654274 11.1364C0.598741 11.2035 0.568359 11.288 0.568359 11.3751C0.568359 11.4623 0.598741 11.5467 0.654274 11.6139C0.709808 11.6811 0.78702 11.7268 0.872622 11.7432C6.43137 12.81 7.19067 13.5687 8.25727 19.1278C8.27381 19.2134 8.31962 19.2905 8.38683 19.346C8.45405 19.4014 8.53847 19.4318 8.62561 19.4318C8.71276 19.4318 8.79718 19.4014 8.86439 19.346C8.93161 19.2905 8.97742 19.2134 8.99396 19.1278C10.0605 13.5687 10.8198 12.8101 16.3783 11.7432C16.4639 11.7268 16.5411 11.6811 16.5966 11.6139C16.6522 11.5467 16.6826 11.4623 16.6826 11.3751C16.6826 11.288 16.6522 11.2035 16.5966 11.1364C16.5411 11.0692 16.4639 11.0235 16.3783 11.0071Z" fill="white"/>
<path d="M15.9646 6.91432C15.8774 6.91428 15.793 6.88389 15.7257 6.82837C15.6585 6.77284 15.6127 6.69566 15.5962 6.61006C15.2206 4.65144 15.006 4.43693 13.0474 4.06123C12.9618 4.04476 12.8846 3.99898 12.8291 3.93176C12.7735 3.86454 12.7432 3.78007 12.7432 3.69288C12.7432 3.6057 12.7735 3.52123 12.8291 3.45401C12.8846 3.38679 12.9618 3.34101 13.0474 3.32454C15.0063 2.94856 15.2206 2.73402 15.5962 0.775706C15.6127 0.690083 15.6585 0.612869 15.7257 0.55734C15.7929 0.501811 15.8774 0.471436 15.9646 0.471436C16.0518 0.471436 16.1362 0.501811 16.2035 0.55734C16.2707 0.612869 16.3165 0.690083 16.3329 0.775706C16.7086 2.73402 16.9228 2.94856 18.8818 3.32454C18.9674 3.34101 19.0446 3.38679 19.1001 3.45401C19.1556 3.52123 19.186 3.6057 19.186 3.69288C19.186 3.78007 19.1556 3.86454 19.1001 3.93176C19.0446 3.99898 18.9674 4.04476 18.8818 4.06123C16.9231 4.4369 16.7086 4.65144 16.3329 6.61006C16.3164 6.69566 16.2706 6.77285 16.2034 6.82837C16.1362 6.88389 16.0518 6.91428 15.9646 6.91432Z" fill="white"/>
</g>
<defs>
<clipPath id="clip0_12_428">
<rect width="20" height="20" fill="white"/>
</clipPath>
</defs>
</svg>
